{"title":"The Hobbit The Battle of The Five Armies (2014) 1080p BluRay [Mu","uid":11871639,"size":5289264846,"categoryP":"video","categoryS":"hd___movies","magnet":"?xt=urn:btih:989973b4c4fa571de0f480af82cf9be1527e99f3&amp;dn=The+Hobbit+The+Battle+of+The+Five+Armies+%282014%29+1080p+BluRay+%5BMu&amp;tr=udp%3A%2F%2Ftracker.openbittorrent.com%3A80&amp;tr=udp%3A%2F%2Fopen.demonii.com%3A1337&amp;tr=udp%3A%2F%2Ftracker.coppersurfer.tk%3A6969&amp;tr=udp%3A%2F%2Fexodus.desync.com%3A6969","seeders":21,"leechers":3,"uploader":"kamalesh","files":2,"time":1430444987,"description":"[center][img]http://i.imgur.com/lHP442B.png[/img][/center]\n\n\n\n[center][img]http://i.imgur.com/ROi2f4Z.jpg[/img]\n\n[b]IMDB : [url]http://www.imdb.com/title/tt2310332/[/url][/b]\n\n[img]http://i.imgur.com/5oJTBSv.png[/img]\n\n[b] Source : Untouched BluRay Disc [BD50] [/b]\n\n[b]Complete name               : The Hobbit The Battle of The Five Armies 1080p BluRay Multi Audio -=Kamalesh=-.mkv\nFormat                      : Matroska\nFormat version              : Version 4 / Version 2\nFile size                   : 4.88 GiB\nDuration                    : 2h 24mn\nOverall bit rate mode       : Variable\nOverall bit rate            : 4 836 Kbps\n\nVideo\nID                          : 1\nFormat                      : AVC\nFormat/Info                 : Advanced Video Codec\nFormat profile              : &lt;a class=&quot;__cf_email__&quot; href=&quot;/cdn-cgi/l/email-protection&quot; data-cfemail=&quot;2f674648476f631b011e&quot;&gt;[email&amp;#160;protected]&lt;/a&gt;&lt;script cf-hash='f9e31' type=&quot;text/javascript&quot;&gt;\n/* &lt;![CDATA[ */!function(){try{var t=&quot;currentScript&quot;in document?document.currentScript:function(){for(var t=document.getElementsByTagName(&quot;script&quot;),e=t.length;e--;)if(t[e].getAttribute(&quot;cf-hash&quot;))return t[e]}();if(t&amp;&amp;t.previousSibling){var e,r,n,i,c=t.previousSibling,a=c.getAttribute(&quot;data-cfemail&quot;);if(a){for(e=&quot;&quot;,r=parseInt(a.substr(0,2),16),n=2;a.length-n;n+=2)i=parseInt(a.substr(n,2),16)^r,e+=String.fromCharCode(i);e=document.createTextNode(e),c.parentNode.replaceChild(e,c)}}}catch(u){}}();/* ]]&gt; */&lt;/script&gt;\nFormat settings, CABAC      : Yes\nFormat settings, ReFrames   : 4 frames\nCodec ID                    : V_MPEG4/ISO/AVC\nDuration                    : 2h 24mn\nBit rate mode               : Variable\nBit rate                    : 3 010 Kbps\nMaximum bit rate            : 40.0 Mbps\nWidth                       : 1 920 pixels\nHeight                      : 800 pixels\nDisplay aspect ratio        : 2.40:1\nFrame rate mode             : Constant\nFrame rate                  : 23.976 fps\nColor space                 : YUV\nChroma subsampling          : 4:2:0\nBit depth                   : 8 bits\nScan type                   : Progressive\nBits/(Pixel*Frame)          : 0.082\nStream size                 : 2.98 GiB (61%)\nWriting library             : x264 core 116 r2074 2641b9e\nLanguage                    : English\nDefault                     : Yes\nForced                      : No\nColor primaries             : Generic film\nTransfer characteristics    : BT.709\nMatrix coefficients         : BT.709\n\nAudio #1\nID                          : 2\nFormat                      : AC-3\nFormat/Info                 : Audio Coding 3\nMode extension              : CM (complete main)\nFormat settings, Endianness : Big\nCodec ID                    : A_AC3\nDuration                    : 2h 24mn\nBit rate mode               : Constant\nBit rate                    : 448 Kbps\nChannel(s)                  : 6 channels\nChannel positions           : Front: L C R, Side: L R, LFE\nSampling rate               : 48.0 KHz\nBit depth                   : 16 bits\nCompression mode            : Lossy\nStream size                 : 463 MiB (9%)\nLanguage                    : English\nDefault                     : Yes\nForced                      : No\n\nAudio #2\nID                          : 3\nFormat                      : AC-3\nFormat/Info                 : Audio Coding 3\nMode extension              : CM (complete main)\nFormat settings, Endianness : Big\nCodec ID                    : A_AC3\nDuration                    : 2h 24mn\nBit rate mode               : Constant\nBit rate                    : 448 Kbps\nChannel(s)                  : 6 channels\nChannel positions           : Front: L C R, Side: L R, LFE\nSampling rate               : 48.0 KHz\nBit depth                   : 16 bits\nCompression mode            : Lossy\nStream size                 : 463 MiB (9%)\nLanguage                    : French\nDefault                     : No\nForced                      : No\n\nAudio #3\nID                          : 4\nFormat                      : AC-3\nFormat/Info                 : Audio Coding 3\nMode extension              : CM (complete main)\nFormat settings, Endianness : Big\nCodec ID                    : A_AC3\nDuration                    : 2h 24mn\nBit rate mode               : Constant\nBit rate                    : 448 Kbps\nChannel(s)                  : 6 channels\nChannel positions           : Front: L C R, Side: L R, LFE\nSampling rate               : 48.0 KHz\nBit depth                   : 16 bits\nCompression mode            : Lossy\nStream size                 : 463 MiB (9%)\nLanguage                    : Spanish\nDefault                     : No\nForced                      : No\n\nAudio #4\nID                          : 5\nFormat                      : AC-3\nFormat/Info                 : Audio Coding 3\nMode extension              : CM (complete main)\nFormat settings, Endianness : Big\nCodec ID                    : A_AC3\nDuration                    : 2h 24mn\nBit rate mode               : Constant\nBit rate                    : 448 Kbps\nChannel(s)                  : 6 channels\nChannel positions           : Front: L C R, Side: L R, LFE\nSampling rate               : 48.0 KHz\nBit depth                   : 16 bits\nCompression mode            : Lossy\nStream size                 : 463 MiB (9%)\nLanguage                    : Portuguese\nDefault                     : No\nForced                      : No\n\nText #1\nID                          : 6\nFormat                      : PGS\nMuxing mode                 : zlib\nCodec ID                    : S_HDMV/PGS\nCodec ID/Info               : The same subtitle format used on BDs/HD-DVDs\nLanguage                    : English\nDefault                     : Yes\nForced                      : No\n\nText #2\nID                          : 7\nFormat                      : PGS\nMuxing mode                 : zlib\nCodec ID                    : S_HDMV/PGS\nCodec ID/Info               : The same subtitle format used on BDs/HD-DVDs\nLanguage                    : French\nDefault                     : No\nForced                      : No\n\nText #3\nID                          : 8\nFormat                      : PGS\nMuxing mode                 : zlib\nCodec ID                    : S_HDMV/PGS\nCodec ID/Info               : The same subtitle format used on BDs/HD-DVDs\nLanguage                    : Spanish\nDefault                     : No\nForced                      : No\n\nText #4\nID                          : 9\nFormat                      : PGS\nMuxing mode                 : zlib\nCodec ID                    : S_HDMV/PGS\nCodec ID/Info               : The same subtitle format used on BDs/HD-DVDs\nLanguage                    : Portuguese\nDefault                     : No\nForced                      : No\n\n\n[/b]\n\n[img]http://i.imgur.com/wP9F3tc.png[/img]\n\n[URL=http://someimage.com/fRiAFcc][IMG]http://t1.someimage.com/fRiAFcc.jpg[/IMG][/URL] [URL=http://someimage.com/AXddGLy][IMG]http://t1.someimage.com/AXddGLy.jpg[/IMG][/URL] [URL=http://someimage.com/1gjv3TS][IMG]http://t1.someimage.com/1gjv3TS.jpg[/IMG][/URL] [URL=http://someimage.com/vafc0It][IMG]http://t1.someimage.com/vafc0It.jpg[/IMG][/URL] [URL=http://someimage.com/e9ymuez][IMG]http://t1.someimage.com/e9ymuez.jpg[/IMG][/URL] [URL=http://someimage.com/NfzWJNA][IMG]http://t1.someimage.com/NfzWJNA.jpg[/IMG][/URL] [URL=http://someimage.com/ivLKQRf][IMG]http://t1.someimage.com/ivLKQRf.jpg[/IMG][/URL] [URL=http://someimage.com/kGe2pJM][IMG]http://t1.someimage.com/kGe2pJM.jpg[/IMG][/URL] [URL=http://someimage.com/oUoidI1][IMG]http://t1.someimage.com/oUoidI1.jpg[/IMG][/URL] [URL=http://someimage.com/Er50mi4][IMG]http://t1.someimage.com/Er50mi4.jpg[/IMG][/URL] [URL=http://someimage.com/R8gNSUY][IMG]http://t1.someimage.com/R8gNSUY.jpg[/IMG][/URL] [URL=http://someimage.com/aTJoaP7][IMG]http://t1.someimage.com/aTJoaP7.jpg[/IMG][/URL] [URL=http://someimage.com/kEzmPBf][IMG]http://t1.someimage.com/kEzmPBf.jpg[/IMG][/URL] [URL=http://someimage.com/3MAeOh2][IMG]http://t1.someimage.com/3MAeOh2.jpg[/IMG][/URL] [URL=http://someimage.com/UvYks57][IMG]http://t1.someimage.com/UvYks57.jpg[/IMG][/URL] [URL=http://someimage.com/l9AFyL4][IMG]http://t1.someimage.com/l9AFyL4.jpg[/IMG][/URL] [URL=http://someimage.com/Ve3vUVm][IMG]http://t1.someimage.com/Ve3vUVm.jpg[/IMG][/URL] [URL=http://someimage.com/xZbiZK5][IMG]http://t1.someimage.com/xZbiZK5.jpg[/IMG][/URL] [URL=http://someimage.com/lxCMXSB][IMG]http://t1.someimage.com/lxCMXSB.jpg[/IMG][/URL] [URL=http://someimage.com/BPkTtJO][IMG]http://t1.someimage.com/BPkTtJO.jpg[/IMG][/URL] [/center]","torrent":{"xt":"urn:btih:989973b4c4fa571de0f480af82cf9be1527e99f3","amp;dn":"The+Hobbit+The+Battle+of+The+Five+Armies+%282014%29+1080p+BluRay+%5BMu","amp;tr":["udp%3A%2F%2Ftracker.openbittorrent.com%3A80","udp%3A%2F%2Fopen.demonii.com%3A1337","udp%3A%2F%2Ftracker.coppersurfer.tk%3A6969","udp%3A%2F%2Fexodus.desync.com%3A6969"],"infoHash":"989973b4c4fa571de0f480af82cf9be1527e99f3","infoHashBuffer":{"type":"Buffer","data":[152,153,115,180,196,250,87,29,224,244,128,175,130,207,155,225,82,126,153,243]},"announce":[],"urlList":[]}}